<svg preserveAspectRatio="none" width="100%" height="100%" overflow="visible" style="display: block;" viewBox="0 0 99.9058 98.0894" fill="none" xmlns="http://www.w3.org/2000/svg">
<g id="fruit">
<g id="Vector">
<path d="M25.524 98.0894C25.1267 97.9629 24.7106 97.8432 24.3352 97.6593C21.8629 96.4514 20.0705 93.2366 19.2077 90.6958C16.8922 83.8776 19.0083 67.7488 21.0779 60.9293C21.7502 58.714 22.7261 56.5693 23.5957 54.4292C25.0068 50.956 26.2987 47.7136 27.9274 44.3204C28.946 42.1982 30.3344 40.0652 31.8488 38.2761C35.4556 34.0146 39.8047 30.562 44.0881 27.0528C44.8455 26.4323 45.5692 25.7591 46.3418 25.1603C47.007 24.6447 47.7183 24.1909 48.3831 23.6742C50.0853 22.3514 51.69 21.0709 53.5733 19.9991C55.7474 18.7618 58.2564 17.995 60.6038 17.1781C68.4233 14.4568 72.0728 14.6208 79.0297 19.3451C80.485 20.3334 82.1492 21.7399 83.7133 22.5189C84.4778 23.1565 85.3503 23.2764 85.9875 23.6831C86.7792 24.2588 89.0113 24.8973 89.9856 25.2511C93.7628 26.6234 96.477 29.4382 98.0189 33.1828C98.4035 34.1174 98.92 35.1974 99.1122 36.2135C99.394 37.3276 99.6174 40.5057 99.9058 41.308V46.4403C99.8974 46.4671 99.8879 46.4939 99.8794 46.5208C99.6005 47.4107 99.6137 48.5173 99.5175 49.4483C99.3026 51.5191 99.0962 53.7238 98.5533 55.7339C97.1801 60.8251 95.1122 65.6009 92.7761 70.297C91.6837 72.493 90.6707 74.6857 89.3886 76.7835C84.3644 85.0038 77.8459 88.6361 69.7105 93.0791C65.7793 95.2259 61.5054 97.0146 57.0592 97.6708C52.9934 98.2714 47.009 97.9275 42.8338 97.6056C38.1666 97.2445 34.3846 96.9897 29.7303 98.0894H25.524Z" fill="#EE835D"/>
<path d="M53.744 0L62.2858 0C63.2449 0.522546 64.9984 0.730853 66.0583 1.1579C68.9657 2.35487 71.8356 3.6442 74.6635 5.02399C75.5944 5.46893 76.5131 5.90168 77.4719 6.28513C81.2106 7.78031 85.4021 11.2846 87.1886 14.9695C87.0232 13.618 86.5461 6.99043 87.1155 6.15894C87.3652 5.79433 87.8045 5.62565 88.222 5.57217C89.0921 5.46072 90.4772 5.54625 91.1709 6.11756C91.2276 6.16432 91.2824 6.21404 91.3378 6.26244C91.3682 6.28903 91.3975 6.31704 91.4266 6.3451C92.567 14.0091 92.0264 15.5451 87.2749 22.149C86.9043 22.6641 86.478 23.259 85.9875 23.6831C85.3503 23.2764 84.4778 23.1565 83.7133 22.5189C84.2806 21.6474 84.8427 21.1985 85.5097 20.4237C85.9138 19.9541 86.3482 19.2785 86.6939 18.7511C86.3219 18.0086 85.9946 17.1294 85.6167 16.3732C84.7326 14.6033 82.9437 12.7967 81.1477 11.9118C76.5409 9.64197 70.7171 9.45573 65.7918 10.6203C63.2123 11.2302 60.5084 12.4521 58.1107 13.0321C55.1526 13.725 51.4376 13.909 48.7336 15.4359C41.5653 19.4837 36.0243 25.9384 28.5788 29.6583C25.7882 31.0526 22.8693 32.1996 20.1316 33.6742C18.0342 34.8038 15.9722 36.493 14.0043 37.8546C11.1036 39.9432 8.86402 41.2649 5.51503 42.5109C3.3013 43.3346 1.96231 43.2379 0 43.83C0.381252 43.5007 0.840435 43.339 1.28159 43.0801C2.09699 42.598 2.85218 42.0177 3.53079 41.3518C7.70967 37.2348 9.14415 31.5224 12.8895 26.9966C16.4015 22.6402 21.4175 19.7768 25.4431 15.9224C27.6603 13.7995 29.5385 10.9075 31.9344 8.85539C33.0623 7.88938 34.6537 5.89942 35.9722 5.2564C39.4547 3.51969 44.02 3.69911 47.6952 2.63793C48.6664 2.35751 52.7877 0.554529 53.6861 0.0341639L53.744 0Z" fill="#62A94F"/>
</g>
</g>
</svg>
