<svg preserveAspectRatio="none" width="100%" height="100%" overflow="visible" style="display: block;" viewBox="0 0 361 64" fill="none" xmlns="http://www.w3.org/2000/svg">
<path id="Vector" d="M360.79 24.6122C360.767 19.1774 360.633 13.0544 357.677 8.47995C354.571 3.67051 349.38 2.44926 344.396 2.20585C337.765 1.8827 331.093 2.07155 324.458 2.02539C317.522 1.97923 310.583 1.93306 303.647 1.8869C289.771 1.79457 275.895 1.70224 262.019 1.60572L178.393 1.04336C150.518 0.854503 122.644 0.669847 94.7662 0.480995C80.7677 0.388667 66.7655 0.292142 52.767 0.199814C45.8309 0.15365 38.8912 0.107486 31.9552 0.0613221C25.9675 0.0193549 19.303 -0.383531 13.5087 1.59732C8.11606 3.43969 4.8247 8.34566 3.047 14.2882C0.718873 22.0899 -0.962136 40.1233 0.618459 48.4999C2.56352 58.8155 12.1698 58.6728 19.5968 60.0787C35.7337 63.1297 52.8451 61.8665 69.1828 62.3197C112.659 63.5284 156.045 63.6333 199.547 63.6333C227.406 62.9577 249.549 64.4978 277.412 63.8264C291.281 63.4906 301.962 62.6303 315.83 62.2946C322.766 62.1267 329.851 61.4762 336.787 61.3083C342.432 61.1698 347.453 61.7406 352.794 59.3359C362.932 54.7782 360.838 35.4019 360.79 24.6122Z" fill="#FFE8E2"/>
</svg>
