<svg preserveAspectRatio="none" width="100%" height="100%" overflow="visible" style="display: block;" viewBox="0 0 17.2308 17.2308" fill="none" xmlns="http://www.w3.org/2000/svg">
<g id="material-symbols:arrow-back-ios-new-rounded">
<path id="Vector" d="M10.4498 8.62466L5.17292 13.9016C4.99343 14.0811 4.90656 14.2905 4.9123 14.5298C4.91804 14.7691 5.0109 14.9785 5.19086 15.158C5.37083 15.3375 5.58023 15.4272 5.81907 15.4272C6.05791 15.4272 6.26731 15.3375 6.44727 15.158L11.9755 9.64774C12.1191 9.50415 12.2268 9.34261 12.2986 9.16313C12.3704 8.98364 12.4062 8.80415 12.4062 8.62466C12.4062 8.44518 12.3704 8.26569 12.2986 8.0862C12.2268 7.90672 12.1191 7.74518 11.9755 7.60159L6.44727 2.07338C6.26779 1.8939 6.05527 1.80702 5.80974 1.81277C5.5642 1.81851 5.35192 1.91137 5.17292 2.09133C4.99391 2.2713 4.90416 2.4807 4.90368 2.71954C4.90321 2.95837 4.99295 3.16778 5.17292 3.34774L10.4498 8.62466Z" fill="#393838"/>
</g>
</svg>
