<svg preserveAspectRatio="none" width="100%" height="100%" overflow="visible" style="display: block;" viewBox="0 0 24 24" fill="none" xmlns="http://www.w3.org/2000/svg">
<g id="user 1 [Vectorized]">
<path id="Vector" d="M11.9628 2.94842C14.6471 2.92813 16.8402 5.08631 16.8632 7.77068C16.886 10.4553 14.7294 12.6507 12.0448 12.676C9.35709 12.7009 7.15854 10.5415 7.13563 7.85369C7.11275 5.1658 9.27483 2.96897 11.9628 2.94842ZM11.9237 4.30779C9.98846 4.34956 8.45379 5.95163 8.495 7.88689C8.53624 9.82218 10.1378 11.3573 12.0731 11.3166C14.0091 11.2758 15.545 9.67346 15.5038 7.73748C15.4624 5.80155 13.8596 4.26608 11.9237 4.30779Z" fill="#1E1E1E" stroke="#1E1E1E" stroke-width="0.1"/>
<path id="Vector_2" d="M12.133 13.8339C14.3431 13.8649 16.5486 14.6659 18.1173 16.2636C19.1866 17.3499 19.8758 18.818 19.8693 20.3603C19.8658 21.0942 18.8959 21.3171 18.5783 20.6523L18.5773 20.6513C18.5149 20.5143 18.513 20.3622 18.5089 20.2285C18.4854 19.4525 18.2383 18.7032 17.8195 18.0459C16.8675 16.5521 15.1827 15.6353 13.463 15.3222C13.0627 15.2494 12.701 15.2212 12.296 15.1972V15.1962C10.3632 15.1465 8.41343 15.7133 6.99233 17.0615C6.16968 17.8419 5.60138 18.873 5.50405 20.0087L5.50307 20.0117C5.49248 20.0875 5.49385 20.1749 5.49233 20.2685C5.49084 20.3592 5.48665 20.4559 5.46205 20.54C5.24067 21.2965 4.16091 21.1794 4.1349 20.3779C4.1263 20.1089 4.14979 19.8514 4.18764 19.5918L4.22572 19.371C4.4371 18.2758 4.95231 17.2603 5.71401 16.4414C7.28381 14.7424 9.43538 13.925 11.714 13.8369H11.715C11.8543 13.8335 11.9937 13.8327 12.133 13.8339Z" fill="#1E1E1E" stroke="#1E1E1E" stroke-width="0.1"/>
</g>
</svg>
