<svg preserveAspectRatio="none" width="100%" height="100%" overflow="visible" style="display: block;" viewBox="0 0 16 16" fill="none" xmlns="http://www.w3.org/2000/svg">
<g id="Interface essential/Close">
<path id="Icon" d="M8.08323 8.50402L11.881 4.71911C12.0397 4.55895 12.0397 4.2995 11.881 4.13934C11.7251 3.97632 11.4678 3.97142 11.3059 4.1284L7.50814 7.91332L3.7592 4.1284C3.68234 4.04644 3.57539 4 3.46351 4C3.35163 4 3.24469 4.04644 3.16783 4.1284C3.02715 4.28314 3.02715 4.52062 3.16783 4.67535L6.91677 8.4548L3.119 12.2342C2.96033 12.3944 2.96033 12.6539 3.119 12.814C3.19454 12.892 3.29842 12.9355 3.40655 12.9343C3.51675 12.9434 3.62601 12.9079 3.71037 12.8359L7.50814 9.05098L11.3059 12.8796C11.3814 12.9576 11.4853 13.0011 11.5935 13C11.7015 13.0005 11.8051 12.9571 11.881 12.8796C12.0397 12.7195 12.0397 12.46 11.881 12.2999L8.08323 8.50402Z" fill="#A6A5A4" stroke="#A6A5A4"/>
</g>
</svg>
